<svg xmlns="http://www.w3.org/2000/svg">

  <symbol id="logo" viewBox="0 0 45 36" fill="none">
    <rect y="15.5" width="18.3099" height="20" rx="9.15493" fill="#9C69E2"/>
    <rect x="26.5493" y="0.5" width="18.3099" height="35" rx="9.15493" fill="#F063B8"/>
  </symbol>

  <symbol id="arrow" viewBox="0 0 22 16" fill="none">
    <path d="M15 15L21 8L15 1" stroke="var(--arrow, #9C69E2)" stroke-width="2" stroke-linecap="round" stroke-linejoin="round"/>
    <path d="M21 8H1" stroke="var(--arrow, #9C69E2)" stroke-width="2" stroke-linecap="round" stroke-linejoin="round"/>
</symbol>

<symbol id="bg-card1" viewBox="0 0 195 140" fill="none">
  <g clip-path="url(#clip0_3807_26)">
  <path d="M184.561 80.1237C210.512 109.559 179.87 137.981 125.937 138.748C18.7132 131.682 -5.48291 36.7221 2.62059 15.4313C10.7241 -5.85945 34.8535 -6.44056 70.6049 36.9316C106.356 80.3039 152.122 43.3298 184.561 80.1237Z" stroke="white" stroke-width="1.5"/>
  <ellipse cx="90.3444" cy="54.407" rx="16.9967" ry="10.0435" transform="rotate(20.7184 90.3444 54.407)" stroke="white" stroke-width="1.5"/>
  </g>
  <defs>
  <clipPath id="clip0_3807_26">
  <rect width="195" height="140" fill="white"/>
  </clipPath>
  </defs>
</symbol>

<symbol id="bg-card2" viewBox="0 0 211 151" fill="none">
  <path d="M11.3722 64.3406C-16.6737 32.5297 16.442 1.8134 74.7273 0.984771C190.605 8.6209 216.754 111.245 207.997 134.254C199.239 157.263 173.162 157.891 134.525 111.019C95.8885 64.1459 46.4295 104.104 11.3722 64.3406Z" stroke="white" stroke-width="1.5"/>
</symbol>

<symbol id="bg-card3" viewBox="0 0 65 51" fill="none">
  <ellipse cx="32.5222" cy="25.427" rx="34.0274" ry="20.1071" transform="rotate(150 32.5222 25.427)" stroke="white" stroke-width="1.5"/>
</symbol>

<symbol id="bg-card4-1" width="62" height="44" viewBox="0 0 62 44" fill="none">
  <ellipse cx="31.3898" cy="22.0324" rx="30.9248" ry="18.2737" transform="rotate(20.7184 31.3898 22.0324)" stroke="white" stroke-width="1.5"/>
</symbol>


</svg>