<svg xmlns="http://www.w3.org/2000/svg">

<symbol id="spides" viewBox="0 0 260.000000 320.000000"
 preserveAspectRatio="xMidYMid meet">

<g transform="translate(0.000000,320.000000) scale(0.100000,-0.100000)"
fill="#000000" stroke="none">
<path d="M1249 2848 c-156 -245 -362 -494 -613 -743 -180 -179 -284 -326 -345
-486 -121 -316 0 -600 299 -706 59 -21 99 -27 190 -31 136 -5 245 17 366 72
40 19 74 31 74 27 0 -4 -16 -59 -36 -122 -45 -142 -110 -281 -169 -364 -25
-35 -45 -67 -45 -72 0 -4 160 -8 355 -8 195 0 355 2 355 5 0 3 -27 36 -60 74
-76 88 -130 192 -174 339 -50 165 -51 162 29 126 197 -89 433 -90 598 -2 116
62 221 195 257 325 21 80 9 267 -25 358 -65 179 -155 303 -373 515 -258 251
-417 448 -576 713 -21 34 -41 62 -46 62 -4 0 -32 -37 -61 -82z"/>
</g>
</symbol>

<symbol id="diamonds" viewBox="0 0 221.000000 228.000000"
 preserveAspectRatio="xMidYMid meet">

<g transform="translate(0.000000,228.000000) scale(0.100000,-0.100000)"
fill="#000000" stroke="none">
<path d="M1097 2195 c-9 -53 -74 -186 -137 -281 -176 -259 -570 -617 -805
-730 -38 -19 -75 -34 -83 -34 -7 0 -10 -4 -7 -10 3 -5 15 -10 25 -10 40 0 221
-104 322 -185 279 -224 618 -650 679 -853 l13 -43 13 50 c53 210 306 523 648
803 141 115 326 228 373 228 7 0 10 5 7 10 -3 6 -15 10 -25 10 -40 0 -221 104
-322 185 -278 223 -603 631 -678 850 l-17 49 -6 -39z"/>
</g>
</symbol>

<symbol id="hearts" viewBox="0 0 260.000000 260.000000"
 preserveAspectRatio="xMidYMid meet">

<g transform="translate(0.000000,260.000000) scale(0.100000,-0.100000)"
fill="#000000" stroke="none">
<path d="M1772 2308 c-180 -25 -337 -147 -425 -330 -23 -48 -44 -87 -47 -87
-3 0 -16 24 -29 55 -74 171 -222 309 -376 349 -76 19 -204 19 -280 0 -267 -70
-441 -347 -395 -630 50 -310 322 -709 753 -1107 133 -122 316 -278 327 -278
18 0 302 252 440 390 267 266 426 471 536 690 143 286 147 518 12 720 -108
163 -318 256 -516 228z"/>
</g>
</symbol>

<symbol id="clubs" viewBox="0 0 800.000000 867.000000"
 preserveAspectRatio="xMidYMid meet">

<g transform="translate(0.000000,867.000000) scale(0.100000,-0.100000)"
fill="#000000" stroke="none">
<path d="M3820 7970 c-400 -49 -738 -207 -1019 -475 -435 -415 -625 -1027
-501 -1613 104 -493 424 -922 868 -1165 112 -61 136 -87 129 -140 -6 -46 -37
-82 -83 -97 -50 -17 -95 2 -144 58 -118 136 -341 303 -523 392 -399 193 -880
226 -1302 88 -126 -41 -353 -156 -460 -233 -629 -452 -887 -1242 -644 -1970
243 -728 956 -1218 1719 -1182 429 21 811 182 1117 471 326 308 510 699 543
1150 5 75 14 145 20 157 30 55 119 75 177 39 86 -52 86 -162 2 -715 -114 -747
-317 -1678 -431 -1976 l-26 -65 117 22 c239 47 363 59 621 59 258 0 382 -12
622 -59 l116 -22 -20 50 c-113 277 -320 1224 -437 1991 -66 433 -78 603 -47
663 46 89 178 96 222 10 10 -20 19 -75 25 -157 4 -69 13 -153 19 -186 117
-638 572 -1156 1190 -1353 617 -196 1297 -29 1752 431 637 642 678 1651 97
2343 -152 182 -336 325 -554 434 -267 132 -477 181 -780 181 -469 -1 -895
-179 -1227 -514 -53 -53 -110 -102 -127 -108 -63 -22 -138 27 -148 98 -7 52
17 80 109 128 444 232 771 660 882 1157 134 595 -53 1209 -497 1635 -249 238
-558 395 -896 454 -133 23 -370 32 -481 19z"/>
</g>
</symbol>

</svg>