<svg xmlns="http://www.w3.org/2000/svg">

<symbol id="spides" viewBox="0 0 260.000000 320.000000"
 preserveAspectRatio="xMidYMid meet">

<g transform="translate(0.000000,320.000000) scale(0.100000,-0.100000)"
fill="#000000" stroke="none">
<path d="M1249 2848 c-156 -245 -362 -494 -613 -743 -180 -179 -284 -326 -345
-486 -121 -316 0 -600 299 -706 59 -21 99 -27 190 -31 136 -5 245 17 366 72
40 19 74 31 74 27 0 -4 -16 -59 -36 -122 -45 -142 -110 -281 -169 -364 -25
-35 -45 -67 -45 -72 0 -4 160 -8 355 -8 195 0 355 2 355 5 0 3 -27 36 -60 74
-76 88 -130 192 -174 339 -50 165 -51 162 29 126 197 -89 433 -90 598 -2 116
62 221 195 257 325 21 80 9 267 -25 358 -65 179 -155 303 -373 515 -258 251
-417 448 -576 713 -21 34 -41 62 -46 62 -4 0 -32 -37 -61 -82z"/>
</g>
</symbol>

<symbol id="diamonds" viewBox="0 0 221.000000 228.000000"
 preserveAspectRatio="xMidYMid meet">

<g transform="translate(0.000000,228.000000) scale(0.100000,-0.100000)"
fill="#ff0000" stroke="none">
<path d="M1097 2195 c-9 -53 -74 -186 -137 -281 -176 -259 -570 -617 -805
-730 -38 -19 -75 -34 -83 -34 -7 0 -10 -4 -7 -10 3 -5 15 -10 25 -10 40 0 221
-104 322 -185 279 -224 618 -650 679 -853 l13 -43 13 50 c53 210 306 523 648
803 141 115 326 228 373 228 7 0 10 5 7 10 -3 6 -15 10 -25 10 -40 0 -221 104
-322 185 -278 223 -603 631 -678 850 l-17 49 -6 -39z"/>
</g>
</symbol>

<symbol id="hearts" viewBox="0 0 260.000000 260.000000"
 preserveAspectRatio="xMidYMid meet">

<g transform="translate(0.000000,260.000000) scale(0.100000,-0.100000)"
fill="#ff0000" stroke="none">
<path d="M1772 2308 c-180 -25 -337 -147 -425 -330 -23 -48 -44 -87 -47 -87
-3 0 -16 24 -29 55 -74 171 -222 309 -376 349 -76 19 -204 19 -280 0 -267 -70
-441 -347 -395 -630 50 -310 322 -709 753 -1107 133 -122 316 -278 327 -278
18 0 302 252 440 390 267 266 426 471 536 690 143 286 147 518 12 720 -108
163 -318 256 -516 228z"/>
</g>
</symbol>

<symbol id="clubs" viewBox="0 0 800.000000 867.000000"
 preserveAspectRatio="xMidYMid meet">

<g transform="translate(0.000000,867.000000) scale(0.100000,-0.100000)"
fill="#000000" stroke="none">
<path d="M3820 7970 c-400 -49 -738 -207 -1019 -475 -435 -415 -625 -1027
-501 -1613 104 -493 424 -922 868 -1165 112 -61 136 -87 129 -140 -6 -46 -37
-82 -83 -97 -50 -17 -95 2 -144 58 -118 136 -341 303 -523 392 -399 193 -880
226 -1302 88 -126 -41 -353 -156 -460 -233 -629 -452 -887 -1242 -644 -1970
243 -728 956 -1218 1719 -1182 429 21 811 182 1117 471 326 308 510 699 543
1150 5 75 14 145 20 157 30 55 119 75 177 39 86 -52 86 -162 2 -715 -114 -747
-317 -1678 -431 -1976 l-26 -65 117 22 c239 47 363 59 621 59 258 0 382 -12
622 -59 l116 -22 -20 50 c-113 277 -320 1224 -437 1991 -66 433 -78 603 -47
663 46 89 178 96 222 10 10 -20 19 -75 25 -157 4 -69 13 -153 19 -186 117
-638 572 -1156 1190 -1353 617 -196 1297 -29 1752 431 637 642 678 1651 97
2343 -152 182 -336 325 -554 434 -267 132 -477 181 -780 181 -469 -1 -895
-179 -1227 -514 -53 -53 -110 -102 -127 -108 -63 -22 -138 27 -148 98 -7 52
17 80 109 128 444 232 771 660 882 1157 134 595 -53 1209 -497 1635 -249 238
-558 395 -896 454 -133 23 -370 32 -481 19z"/>
</g>
</symbol>

<symbol id="valet" viewBox="0 0 512.000000 512.000000"
 preserveAspectRatio="xMidYMid meet">

<g transform="translate(0.000000,512.000000) scale(0.100000,-0.100000)"
fill="var(--col1, #000000)" stroke="none">
<path d="M1495 4928 c-30 -17 -35 -28 -35 -83 0 -104 49 -225 128 -315 l46
-53 -30 -21 c-98 -71 -179 -179 -222 -296 l-27 -75 -3 -335 -3 -335 -40 -23
c-85 -49 -124 -141 -117 -274 4 -65 11 -96 33 -141 58 -117 181 -197 303 -197
l57 0 33 -85 c67 -169 189 -344 338 -483 l93 -87 -16 -175 c-8 -96 -17 -177
-19 -179 -2 -2 -218 -55 -481 -117 -413 -99 -490 -120 -562 -155 -152 -75
-265 -217 -305 -384 -17 -69 -99 -831 -94 -871 5 -40 50 -71 85 -58 16 5 33
21 39 34 7 14 30 205 53 425 23 220 49 426 58 458 20 72 76 161 131 208 80 68
128 86 428 158 159 38 291 68 293 65 2 -2 -33 -180 -78 -396 -44 -216 -81
-401 -81 -410 0 -28 37 -58 70 -58 16 0 47 6 67 14 77 30 356 126 364 126 4 0
9 -133 11 -295 3 -318 3 -316 58 -330 18 -4 34 0 53 15 l27 21 0 560 c0 307 4
559 8 559 5 0 21 -14 38 -31 41 -43 132 -94 210 -119 174 -53 403 -1 519 120
16 16 32 30 37 30 4 0 8 -252 8 -559 l0 -560 27 -21 c19 -15 35 -19 53 -15 55
14 55 12 58 330 2 162 7 295 12 295 4 0 97 -31 207 -70 109 -38 210 -70 226
-70 30 0 67 31 67 57 0 10 -37 195 -81 411 -45 216 -80 394 -78 396 2 3 134
-26 293 -65 300 -72 348 -89 428 -158 55 -47 111 -136 131 -208 9 -32 35 -238
58 -458 23 -220 46 -411 53 -425 6 -13 23 -29 39 -34 35 -13 80 18 85 58 5 40
-77 802 -94 871 -39 165 -155 310 -305 384 -73 36 -148 57 -562 155 -263 63
-480 116 -482 118 -1 1 -10 82 -18 178 l-16 175 93 87 c149 140 267 309 337
483 l34 85 57 0 c176 0 325 147 336 332 8 135 -32 231 -118 280 l-40 23 0 245
c0 263 -9 366 -41 499 -105 423 -440 703 -923 770 -110 15 -1284 14 -1311 -1z
m1417 -156 c415 -101 656 -371 708 -792 5 -46 10 -191 10 -321 l0 -236 -32 -7
c-31 -7 -37 -3 -121 85 -121 126 -142 174 -168 371 -25 195 -25 195 -54 214
-22 15 -34 14 -167 -10 -339 -60 -696 -62 -1028 -5 -63 11 -129 23 -147 26
-50 9 -78 -27 -87 -108 -32 -297 -53 -352 -183 -488 -84 -88 -90 -92 -120 -85
l-33 7 0 296 c0 321 5 362 56 463 38 74 126 158 206 197 70 33 88 52 88 95 0
19 -13 35 -52 64 -72 53 -125 114 -154 176 -45 96 -107 88 584 83 577 -3 611
-5 694 -25z m-752 -858 c242 -34 618 -29 888 13 56 8 104 14 107 12 2 -3 9
-45 15 -94 27 -211 62 -284 209 -439 l103 -110 -7 -90 c-26 -340 -143 -618
-354 -839 -151 -158 -358 -287 -493 -307 -181 -27 -387 70 -604 285 -230 228
-353 507 -380 862 l-7 90 97 100 c103 108 158 188 182 268 13 44 43 226 44
264 0 11 10 12 48 7 26 -4 94 -14 152 -22z m-682 -630 c18 -5 22 -14 22 -43 0
-34 21 -201 36 -285 l7 -39 -42 6 c-97 13 -171 107 -171 219 0 72 20 115 63
133 36 16 52 17 85 9z m2247 -8 c44 -19 65 -61 65 -134 0 -112 -74 -206 -171
-219 l-42 -6 7 39 c15 85 36 251 36 286 0 26 5 38 18 41 32 9 53 7 87 -7z
m-1325 -1340 c151 -41 288 -25 443 51 74 37 97 45 97 33 1 -8 7 -85 15 -170
15 -173 10 -230 -32 -318 -35 -74 -109 -147 -190 -185 -63 -30 -76 -32 -173
-32 -97 0 -110 2 -173 32 -81 38 -155 111 -190 185 -42 88 -47 145 -32 318 8
85 14 163 15 172 0 14 15 9 83 -27 45 -24 107 -50 137 -59z m-390 -644 l0
-328 -166 -58 c-91 -32 -168 -55 -171 -52 -4 3 27 167 68 363 l74 358 85 22
c47 11 91 22 98 22 9 1 12 -71 12 -327z m1215 305 l80 -22 74 -358 c41 -196
72 -360 68 -363 -3 -3 -80 20 -171 53 l-166 58 0 328 c0 305 1 327 18 326 9 0
53 -10 97 -22z"/>
<path d="M2052 3532 c-63 -23 -112 -66 -112 -99 0 -26 41 -73 64 -73 8 0 38
11 68 25 70 33 125 32 200 -2 56 -25 62 -26 87 -12 14 8 30 27 35 42 33 94
-192 172 -342 119z"/>
<path d="M2844 3532 c-100 -35 -138 -78 -116 -127 21 -46 54 -52 120 -21 75
33 131 33 200 1 67 -31 77 -31 107 0 47 46 27 89 -64 135 -63 31 -178 37 -247
12z"/>
<path d="M2140 3283 c-28 -11 -59 -46 -65 -74 -7 -32 16 -83 44 -99 26 -13 77
-13 103 1 26 14 48 67 41 101 -9 49 -78 89 -123 71z"/>
<path d="M2920 3283 c-25 -10 -52 -37 -61 -62 -12 -31 6 -86 34 -106 25 -17
80 -20 108 -5 28 16 51 67 44 99 -11 52 -79 92 -125 74z"/>
<path d="M2251 2644 c-43 -54 -18 -93 84 -131 55 -20 94 -27 184 -31 134 -6
223 8 301 46 68 34 85 67 53 110 -27 36 -46 37 -136 7 -107 -35 -247 -36 -353
0 -93 31 -108 31 -133 -1z"/>
</g>
</symbol>

<symbol id="dama" viewBox="0 0 512.000000 512.000000"
 preserveAspectRatio="xMidYMid meet">

<g transform="translate(0.000000,512.000000) scale(0.100000,-0.100000)"
fill="var(--col1, #000000)" stroke="none">
<path d="M2416 5110 c-235 -37 -475 -163 -632 -332 -195 -209 -284 -460 -284
-800 0 -109 -11 -133 -86 -189 -108 -82 -174 -212 -174 -345 0 -76 -17 -122
-64 -174 -178 -197 -176 -492 4 -703 52 -61 56 -73 64 -200 4 -61 11 -92 37
-145 18 -37 33 -71 33 -75 1 -5 -64 -34 -144 -66 -80 -31 -172 -75 -206 -98
-95 -65 -188 -172 -239 -277 -82 -168 -79 -130 -83 -863 -2 -449 0 -665 8
-693 14 -51 63 -108 115 -131 38 -18 119 -19 1795 -19 1676 0 1757 1 1795 19
52 23 101 80 115 131 8 28 10 244 8 693 -4 645 -4 653 -27 727 -50 165 -168
330 -298 416 -31 21 -122 64 -202 95 -81 32 -146 62 -145 66 0 4 15 38 33 75
26 53 33 84 37 145 8 127 12 139 64 200 84 98 140 239 140 353 0 109 -58 261
-130 343 -53 60 -70 103 -70 181 0 133 -66 263 -174 345 -31 23 -62 54 -69 69
-9 17 -17 82 -21 177 -9 214 -57 415 -113 477 -34 38 -123 6 -123 -44 0 -9 16
-63 34 -120 37 -110 56 -243 56 -392 0 -129 16 -165 125 -271 51 -49 101 -106
110 -125 11 -21 20 -73 25 -135 9 -119 27 -167 93 -244 138 -162 138 -363 -1
-521 -66 -76 -84 -122 -92 -235 -4 -73 -12 -113 -28 -146 -44 -90 -20 -93
-362 39 l-305 118 -3 95 -3 95 50 42 c104 88 193 230 237 377 24 82 27 110 31
305 4 136 1 243 -6 290 -16 105 -64 198 -151 294 -126 138 -239 305 -310 459
-31 66 -71 97 -125 97 -71 0 -106 -38 -135 -147 -66 -250 -264 -479 -565 -655
-213 -124 -304 -297 -276 -521 25 -191 93 -331 228 -466 l84 -84 -3 -90 -3
-90 -304 -118 c-343 -134 -319 -131 -363 -40 -16 33 -24 73 -28 146 -8 113
-26 160 -93 235 -138 156 -139 359 0 521 66 77 84 125 93 244 5 62 14 114 25
135 9 19 59 76 110 125 115 112 121 128 129 350 7 189 28 289 86 413 185 394
651 607 1063 487 139 -40 285 -123 362 -205 59 -63 118 -73 150 -27 30 43 19
77 -42 134 -128 119 -287 207 -453 250 -107 28 -302 39 -404 23z m404 -922
c68 -120 148 -232 234 -327 141 -156 150 -187 143 -491 -5 -235 -14 -284 -68
-393 -80 -157 -205 -265 -374 -323 -67 -23 -97 -27 -185 -27 -127 0 -205 19
-313 75 -198 103 -327 312 -330 533 -1 77 2 98 25 146 32 70 85 124 163 168
113 63 235 153 328 242 142 134 223 248 287 407 19 45 35 82 36 82 0 0 25 -42
54 -92z m-344 -1708 c107 -13 230 -1 333 34 l71 24 0 -51 c0 -118 36 -169 145
-208 36 -12 65 -25 65 -29 0 -14 -458 -460 -483 -469 -36 -14 -88 -14 -124 -1
-25 10 -473 446 -473 461 0 3 21 14 48 24 81 30 138 65 156 96 10 17 20 60 23
103 l6 73 73 -23 c40 -13 112 -28 160 -34z m-450 -1323 l201 -1007 -418 0
-419 0 0 665 c0 652 0 665 -20 685 -27 27 -81 26 -106 -1 -18 -20 -19 -48 -22
-685 l-2 -664 -210 0 -210 0 -15 24 c-14 21 -16 97 -13 662 l3 639 28 80 c53
150 157 274 282 335 79 39 697 279 710 276 5 -1 100 -455 211 -1009z m1629
878 c191 -74 368 -146 392 -161 89 -52 165 -136 218 -242 61 -122 59 -90 62
-791 4 -571 2 -646 -12 -667 l-15 -24 -210 0 -210 0 -2 664 c-3 637 -4 665
-22 685 -25 27 -79 28 -106 1 -20 -20 -20 -33 -20 -685 l0 -665 -421 0 c-396
0 -420 1 -415 18 3 9 41 201 86 426 88 439 88 444 36 467 -32 15 -72 4 -90
-24 -8 -12 -51 -206 -96 -432 -45 -226 -84 -420 -87 -432 -5 -23 -7 -23 -184
-23 -98 0 -179 2 -179 4 0 2 -83 418 -185 924 -102 506 -185 926 -185 933 0 8
80 -66 178 -163 110 -109 194 -185 222 -199 68 -33 168 -37 245 -9 54 21 80
43 264 224 112 111 202 192 199 181 -2 -11 -36 -176 -74 -367 l-68 -347 20
-28 c28 -38 75 -43 107 -11 20 20 34 80 106 438 84 425 87 440 95 440 2 0 160
-61 351 -135z"/>
</g>
</symbol>

<svg id="king" viewBox="0 0 512.000000 512.000000"
 preserveAspectRatio="xMidYMid meet">

<g transform="translate(0.000000,512.000000) scale(0.100000,-0.100000)"
fill="var(--col1, #000000)" stroke="none">
<path d="M1967 5100 c-317 -54 -576 -274 -677 -577 -42 -127 -53 -256 -48
-563 4 -242 6 -259 30 -327 14 -40 49 -107 78 -149 78 -114 89 -154 100 -367
10 -188 24 -275 67 -412 57 -182 138 -318 263 -439 l81 -79 -3 -91 -3 -91
-145 -52 c-617 -220 -1261 -457 -1303 -480 -112 -60 -228 -205 -271 -338 -28
-89 -138 -784 -133 -842 11 -106 85 -210 185 -256 l47 -22 2325 0 2325 0 47
22 c98 46 175 152 184 255 6 58 -103 752 -132 843 -44 136 -161 280 -279 341
-57 30 -196 81 -1050 388 -192 70 -360 131 -372 136 -22 9 -23 16 -23 104 l0
95 83 83 c176 177 266 383 322 738 30 197 60 291 143 459 l67 135 3 363 c4
407 2 417 -66 547 -44 84 -118 162 -193 205 l-56 31 -1 59 c-2 133 -80 227
-225 273 -54 17 -105 18 -690 17 -348 -1 -654 -5 -680 -9z m1326 -176 c54 -18
97 -64 97 -102 0 -14 -5 -51 -12 -83 -15 -75 -1 -98 81 -128 113 -41 192 -121
230 -232 20 -59 21 -84 21 -365 0 -207 -4 -320 -12 -356 -13 -53 -13 -53 -19
82 -4 103 -10 149 -27 195 -42 115 -129 220 -233 282 -30 18 -165 72 -299 120
l-245 87 -100 0 c-98 0 -103 -1 -255 -59 l-155 -59 -255 -6 c-233 -5 -260 -8
-312 -29 -217 -85 -356 -285 -359 -516 -1 -50 -3 -63 -9 -45 -4 14 -8 162 -9
330 -1 347 4 381 70 519 33 67 58 102 128 171 73 75 100 94 181 133 83 40 132
54 240 71 14 2 291 4 616 5 516 1 596 -1 637 -15z m-246 -750 c120 -42 240
-87 266 -101 59 -30 121 -92 155 -158 l27 -50 3 -385 c3 -418 -3 -501 -54
-674 -62 -216 -177 -388 -324 -485 -25 -17 -83 -62 -130 -101 -136 -113 -235
-163 -364 -180 -108 -16 -192 0 -302 54 -109 54 -406 268 -465 334 -90 103
-167 267 -212 457 -20 85 -22 115 -22 530 l0 440 27 57 c33 70 106 145 173
178 48 24 61 25 300 31 273 6 256 3 470 83 172 65 183 64 452 -30z m43 -2142
l0 -38 -265 -177 -264 -177 -266 176 c-258 173 -265 178 -265 211 0 18 2 33 5
33 2 0 39 -23 82 -51 96 -62 205 -115 280 -134 75 -20 225 -19 316 1 87 19
253 98 322 153 28 22 51 40 53 40 1 1 2 -16 2 -37z m-905 -355 c132 -88 242
-161 244 -163 4 -4 -301 -424 -309 -424 -7 0 -375 669 -375 682 0 13 176 77
190 70 6 -3 118 -77 250 -165z m1190 95 c0 -17 -369 -682 -377 -680 -8 3 -298
396 -304 412 -2 6 109 86 247 177 l251 167 91 -33 c51 -18 92 -37 92 -43z
m-2040 -302 c-53 -107 -95 -204 -95 -220 0 -16 11 -41 24 -57 24 -28 26 -28
150 -31 l125 -4 -29 -59 c-58 -114 -87 -77 393 -516 232 -212 424 -390 425
-395 5 -12 -2005 -10 -2047 2 -44 12 -87 54 -101 95 -17 50 108 781 145 855
33 65 105 143 164 178 38 22 931 352 939 346 2 -1 -40 -88 -93 -194z m2825 28
c228 -82 436 -161 463 -176 26 -14 70 -49 98 -79 85 -90 95 -123 166 -543 36
-214 60 -387 57 -403 -9 -41 -60 -95 -102 -107 -45 -12 -2055 -14 -2050 -2 2
5 165 156 363 337 485 442 485 442 485 482 0 19 -13 60 -30 92 l-29 59 125 4
c124 3 126 3 150 31 13 16 24 41 24 57 0 16 -42 112 -95 219 -52 106 -95 194
-95 196 0 3 12 0 28 -6 15 -6 214 -78 442 -161z m-2265 -368 c152 -278 291
-530 307 -560 l31 -55 -49 46 c-27 25 -154 141 -281 258 l-233 212 50 99 c28
55 50 109 50 121 0 11 -13 34 -29 50 -29 29 -30 29 -150 29 -73 0 -121 4 -121
10 0 10 143 301 146 297 1 -1 126 -229 279 -507z m1754 213 c1 -10 -30 -13
-120 -13 -120 0 -121 0 -150 -29 -16 -16 -29 -39 -29 -50 0 -12 22 -66 50
-121 l50 -99 -238 -217 c-130 -120 -257 -236 -281 -258 l-43 -41 43 80 c24 45
163 298 309 563 l265 482 72 -143 c40 -78 72 -148 72 -154z m-995 -90 c4 -8
-10 -37 -34 -72 -23 -35 -40 -72 -40 -88 0 -15 21 -159 46 -319 l47 -291 -54
-97 c-30 -53 -56 -96 -59 -96 -3 0 -29 43 -58 95 l-53 95 45 286 c25 158 46
303 46 323 0 28 -11 52 -41 94 l-40 57 22 33 c13 17 36 49 52 70 l29 38 42
-58 c23 -32 45 -64 50 -70z m-292 -175 c5 -16 -44 -338 -51 -338 -8 0 -91 155
-91 169 0 13 122 181 131 181 4 0 9 -6 11 -12z m476 -73 c34 -46 62 -90 62
-97 -1 -24 -89 -173 -94 -158 -7 25 -46 285 -46 314 0 14 4 26 8 26 5 0 36
-38 70 -85z"/>
</g>
</svg>



</svg>