<svg width="15" height="20" viewBox="0 0 15 20" fill="none" xmlns="http://www.w3.org/2000/svg">
<path d="M7.96908 0C3.96079 0 0 2.74072 0 7.17653C0 9.99739 1.54694 11.6002 2.48448 11.6002C2.87137 11.6002 3.09388 10.4942 3.09388 10.182C3.09388 9.80955 2.16822 9.01586 2.16822 7.46503C2.16822 4.24347 4.55894 1.95922 7.65282 1.95922C10.3129 1.95922 12.2818 3.51005 12.2818 6.35912C12.2818 8.48695 11.4499 12.4778 8.75412 12.4778C7.78157 12.4778 6.94904 11.7566 6.94904 10.7231C6.94904 9.20819 7.98033 7.74198 7.98033 6.17897C7.98033 3.52672 4.31205 4.00755 4.31205 7.21307C4.31205 7.88623 4.39393 8.6312 4.68707 9.24473C4.14767 11.6252 3.04638 15.1711 3.04638 17.6233C3.04638 18.3805 3.15201 19.1261 3.22201 19.8832C3.35451 20.0358 3.28826 20.0198 3.4914 19.9435C5.46023 17.1784 5.39022 16.638 6.28089 13.0196C6.76153 13.9575 8.00346 14.462 8.98787 14.462C13.1362 14.462 15 10.3147 15 6.57645C15 2.59776 11.648 0.00128221 7.96846 0.00128221L7.96908 0Z" fill="#F8F1EA"/>
</svg>
