<svg width="26" height="22" viewBox="0 0 26 22" fill="none" xmlns="http://www.w3.org/2000/svg">
<path d="M25 1.01121C25 1.01121 22.7985 2.33981 21.5745 2.71654C20.9175 1.9447 20.0444 1.39763 19.0731 1.14934C18.1019 0.901042 17.0795 0.963498 16.1441 1.32826C15.2087 1.69302 14.4056 2.34249 13.8433 3.18882C13.2809 4.03515 12.9866 5.03751 13 6.06034V7.17494C11.0829 7.22573 9.18321 6.79131 7.47019 5.91036C5.75718 5.02942 4.28398 3.72931 3.18182 2.12581C3.18182 2.12581 -1.18182 12.1572 8.63636 16.6156C6.38967 18.1738 3.71326 18.955 1 18.8448C10.8182 24.4178 22.8182 18.8448 22.8182 6.0269C22.8182 5.71704 22.7876 5.40718 22.7309 5.10178C23.8436 3.9805 25 1.01121 25 1.01121Z" stroke="#F16A50" stroke-width="2" stroke-linecap="round" stroke-linejoin="round"/>
</svg>
