<svg width="29" height="22" viewBox="0 0 29 22" fill="none" xmlns="http://www.w3.org/2000/svg">
<path d="M27.4006 4.12757C27.2468 3.5218 26.9455 2.96947 26.527 2.52588C26.1085 2.08229 25.5874 1.763 25.0158 1.59996C23.4539 0.960369 8.32185 0.647011 3.93167 1.61785C3.36005 1.78094 2.83889 2.10034 2.42036 2.54407C2.00183 2.98779 1.70063 3.54027 1.54691 4.14617C0.841541 7.42498 0.788217 14.5135 1.56446 17.8659C1.71828 18.4717 2.01953 19.0241 2.43805 19.4676C2.85657 19.9112 3.37768 20.2305 3.94922 20.3936C7.04273 21.1483 21.7495 21.2542 25.0334 20.3936C25.6049 20.2305 26.1261 19.9112 26.5446 19.4676C26.9631 19.0241 27.2643 18.4717 27.4182 17.8659C28.1701 14.2938 28.2234 7.64462 27.4006 4.12757V4.12757Z" stroke="#F8F1EA" stroke-width="2" stroke-linecap="round" stroke-linejoin="round"/>
<path d="M19 11.5L12 7V16L19 11.5Z" stroke="#F8F1EA" stroke-width="2" stroke-linecap="round" stroke-linejoin="round"/>
</svg>
