<?xml version="1.0" standalone="no"?>
<!DOCTYPE svg PUBLIC "-//W3C//DTD SVG 20010904//EN"
 "http://www.w3.org/TR/2001/REC-SVG-20010904/DTD/svg10.dtd">
<svg version="1.0" xmlns="http://www.w3.org/2000/svg"
 width="800.000000pt" height="867.000000pt" viewBox="0 0 800.000000 867.000000"
 preserveAspectRatio="xMidYMid meet">

<g transform="translate(0.000000,867.000000) scale(0.100000,-0.100000)"
fill="#000000" stroke="none">
<path d="M3820 7970 c-400 -49 -738 -207 -1019 -475 -435 -415 -625 -1027
-501 -1613 104 -493 424 -922 868 -1165 112 -61 136 -87 129 -140 -6 -46 -37
-82 -83 -97 -50 -17 -95 2 -144 58 -118 136 -341 303 -523 392 -399 193 -880
226 -1302 88 -126 -41 -353 -156 -460 -233 -629 -452 -887 -1242 -644 -1970
243 -728 956 -1218 1719 -1182 429 21 811 182 1117 471 326 308 510 699 543
1150 5 75 14 145 20 157 30 55 119 75 177 39 86 -52 86 -162 2 -715 -114 -747
-317 -1678 -431 -1976 l-26 -65 117 22 c239 47 363 59 621 59 258 0 382 -12
622 -59 l116 -22 -20 50 c-113 277 -320 1224 -437 1991 -66 433 -78 603 -47
663 46 89 178 96 222 10 10 -20 19 -75 25 -157 4 -69 13 -153 19 -186 117
-638 572 -1156 1190 -1353 617 -196 1297 -29 1752 431 637 642 678 1651 97
2343 -152 182 -336 325 -554 434 -267 132 -477 181 -780 181 -469 -1 -895
-179 -1227 -514 -53 -53 -110 -102 -127 -108 -63 -22 -138 27 -148 98 -7 52
17 80 109 128 444 232 771 660 882 1157 134 595 -53 1209 -497 1635 -249 238
-558 395 -896 454 -133 23 -370 32 -481 19z"/>
</g>
</svg>
