<?xml version="1.0" standalone="no"?>
<!DOCTYPE svg PUBLIC "-//W3C//DTD SVG 20010904//EN"
 "http://www.w3.org/TR/2001/REC-SVG-20010904/DTD/svg10.dtd">
<svg version="1.0" xmlns="http://www.w3.org/2000/svg"
 width="260.000000pt" height="260.000000pt" viewBox="0 0 260.000000 260.000000"
 preserveAspectRatio="xMidYMid meet">

<g transform="translate(0.000000,260.000000) scale(0.100000,-0.100000)"
fill="#000000" stroke="none">
<path d="M1772 2308 c-180 -25 -337 -147 -425 -330 -23 -48 -44 -87 -47 -87
-3 0 -16 24 -29 55 -74 171 -222 309 -376 349 -76 19 -204 19 -280 0 -267 -70
-441 -347 -395 -630 50 -310 322 -709 753 -1107 133 -122 316 -278 327 -278
18 0 302 252 440 390 267 266 426 471 536 690 143 286 147 518 12 720 -108
163 -318 256 -516 228z"/>
</g>
</svg>
