<?xml version="1.0" standalone="no"?>
<!DOCTYPE svg PUBLIC "-//W3C//DTD SVG 20010904//EN"
 "http://www.w3.org/TR/2001/REC-SVG-20010904/DTD/svg10.dtd">
<svg version="1.0" xmlns="http://www.w3.org/2000/svg"
 width="260.000000pt" height="320.000000pt" viewBox="0 0 260.000000 320.000000"
 preserveAspectRatio="xMidYMid meet">

<g transform="translate(0.000000,320.000000) scale(0.100000,-0.100000)"
fill="#000000" stroke="none">
<path d="M1249 2848 c-156 -245 -362 -494 -613 -743 -180 -179 -284 -326 -345
-486 -121 -316 0 -600 299 -706 59 -21 99 -27 190 -31 136 -5 245 17 366 72
40 19 74 31 74 27 0 -4 -16 -59 -36 -122 -45 -142 -110 -281 -169 -364 -25
-35 -45 -67 -45 -72 0 -4 160 -8 355 -8 195 0 355 2 355 5 0 3 -27 36 -60 74
-76 88 -130 192 -174 339 -50 165 -51 162 29 126 197 -89 433 -90 598 -2 116
62 221 195 257 325 21 80 9 267 -25 358 -65 179 -155 303 -373 515 -258 251
-417 448 -576 713 -21 34 -41 62 -46 62 -4 0 -32 -37 -61 -82z"/>
</g>
</svg>
